<?xml version="1.0" encoding="utf-8"?>
<!-- Generator: Adobe Illustrator 23.0.1, SVG Export Plug-In . SVG Version: 6.00 Build 0)  -->
<svg version="1.1" id="Layer_1" xmlns="http://www.w3.org/2000/svg" xmlns:xlink="http://www.w3.org/1999/xlink" x="0px" y="0px"
	 viewBox="0 0 281.46 281.46" style="enable-background:new 0 0 256 256;" xml:space="preserve">
<style type="text/css">
	.st0{fill-rule:evenodd;clip-rule:evenodd;fill:#FFFFFF;}

	@keyframes rotate {
		from {
			transform: rotate(0deg);
			transform-origin: 50% 50%;
		}
		to {
			transform: rotate(360deg);
			transform-origin: 50% 50%;
		}
	}

	#Fill-1 {
	  animation-name: rotate;
		animation-duration: 6s;
		animation-iteration-count: infinite;
		animation-timing-function: linear;
	}
	#Fill-4 {
	  animation-name: rotate;
		animation-duration: 5s;
		animation-iteration-count: infinite;
		animation-timing-function: linear;
	}
	#Fill-6 {
	  animation-name: rotate;
		animation-duration: 4s;
		animation-iteration-count: infinite;
		animation-timing-function: linear;
	}
</style>
<title>solar-256</title>
<desc>Created with Sketch.</desc>
<g id="solar-256">
	<g id="Group-14">
		<path id="Fill-1" class="st0" d="M140.73,257.19c-64.22,0-116.46-52.24-116.46-116.46c0-30.94,12.15-59.08,31.91-79.96
			c0.92,0.22,1.87,0.37,2.86,0.37c6.78,0,12.27-5.5,12.27-12.27c0-0.51-0.09-0.99-0.15-1.49c19.43-14.52,43.51-23.12,69.57-23.12
			c64.22,0,116.46,52.24,116.46,116.46C257.19,204.94,204.94,257.19,140.73,257.19 M140.73,12.73c-28.57,0-54.95,9.37-76.25,25.19
			C62.83,37.1,61,36.6,59.03,36.6c-6.77,0-12.27,5.49-12.27,12.27c0,1.47,0.3,2.86,0.77,4.16c-21.57,22.91-34.81,53.75-34.81,87.69
			c0,70.69,57.3,128,127.99,128c70.69,0,127.99-57.31,127.99-128C268.72,70.04,211.41,12.73,140.73,12.73"/>
		<path id="Fill-4" class="st0" d="M140.73,229.88c-7.03,0-13.86-0.84-20.42-2.39c0.02-0.25,0.08-0.49,0.08-0.75
			c0-6.78-5.49-12.27-12.27-12.27c-3.93,0-7.38,1.88-9.62,4.74c-27.91-15.08-46.92-44.61-46.92-78.5
			c0-49.16,39.99-89.15,89.15-89.15c49.16,0,89.15,39.99,89.15,89.15S189.88,229.88,140.73,229.88 M140.73,42.74
			c-54.12,0-97.98,43.87-97.98,97.98c0,37.98,21.62,70.89,53.22,87.15c0.58,6.24,5.77,11.14,12.15,11.14c3.24,0,6.17-1.28,8.36-3.34
			c7.76,1.97,15.88,3.03,24.25,3.03c54.12,0,97.98-43.87,97.98-97.98C238.71,86.61,194.84,42.74,140.73,42.74"/>
		<path id="Fill-6" class="st0" d="M140.73,203.89c-34.83,0-63.17-28.34-63.17-63.17c0-34.83,28.34-63.16,63.17-63.16
			c18.25,0,34.72,7.79,46.26,20.21c-1.57,2.06-2.53,4.6-2.53,7.39c0,6.78,5.49,12.27,12.27,12.27c0.89,0,1.76-0.11,2.59-0.29
			c2.95,7.29,4.58,15.24,4.58,23.57C203.89,175.56,175.56,203.89,140.73,203.89 M204.91,114.25c2.49-2.25,4.09-5.47,4.09-9.08
			c0-6.77-5.49-12.27-12.27-12.27c-1.7,0-3.31,0.34-4.78,0.97C179.25,80,161,71.31,140.73,71.31c-38.34,0-69.42,31.08-69.42,69.42
			c0,38.34,31.08,69.42,69.42,69.42s69.42-31.08,69.42-69.42C210.15,131.35,208.27,122.41,204.91,114.25"/>
		<path id="Fill-8" class="st0" d="M140.73,120.23c-11.32,0-20.5,9.18-20.5,20.5c0,11.32,9.18,20.5,20.5,20.5
			c11.32,0,20.5-9.18,20.5-20.5C161.22,129.4,152.05,120.23,140.73,120.23"/>
	</g>
</g>
</svg>
