<?xml version="1.0" encoding="utf-8"?>
<!-- Generator: Adobe Illustrator 23.0.1, SVG Export Plug-In . SVG Version: 6.00 Build 0)  -->
<svg version="1.1" id="Layer_1" xmlns="http://www.w3.org/2000/svg" xmlns:xlink="http://www.w3.org/1999/xlink" x="0px" y="0px"
	 viewBox="0 0 72.72 16.91" style="enable-background:new 0 0 72.72 16.91;" xml:space="preserve">
<style type="text/css">
	.st0{fill:#FFFFFF;}
</style>
<g>
	<path class="st0" d="M2.34,13.05l1.78-2.13c1.23,1.02,2.52,1.66,4.09,1.66c1.23,0,1.98-0.49,1.98-1.33c0-0.76-0.47-1.15-2.76-1.74
		C4.67,8.8,2.89,8.04,2.89,5.28c0-2.48,2-4.13,4.79-4.13c2,0,3.7,0.63,5.09,1.74L11.2,5.16C9.99,4.32,8.8,3.82,7.64,3.82
		c-1.15,0-1.76,0.53-1.76,1.23c0,0.9,0.59,1.19,2.95,1.8c2.78,0.72,4.34,1.72,4.34,4.15c0,2.72-2.07,4.24-5.03,4.24
		C6.08,15.24,3.99,14.52,2.34,13.05z"/>
	<path class="st0" d="M15.19,8.2c0-3.89,3.07-7.08,7.3-7.08c4.23,0,7.26,3.15,7.26,7.08c0,3.89-3.07,7.08-7.3,7.08
		C18.23,15.28,15.19,12.13,15.19,8.2z M26.6,8.2c0-2.35-1.72-4.3-4.15-4.3c-2.43,0-4.11,1.92-4.11,4.3c0,2.35,1.72,4.3,4.15,4.3
		C24.92,12.5,26.6,10.58,26.6,8.2z"/>
	<path class="st0" d="M32.43,1.35h3.01v10.96h6.83v2.74h-9.84V1.35z"/>
	<path class="st0" d="M49.23,1.25h2.78l5.87,13.79h-3.15l-1.25-3.07h-5.79l-1.25,3.07h-3.07L49.23,1.25z M52.4,9.31l-1.82-4.44
		l-1.82,4.44H52.4z"/>
	<path class="st0" d="M59.99,1.35h6.26c1.74,0,3.09,0.49,3.99,1.39C71,3.5,71.41,4.58,71.41,5.91c0,2.21-1.19,3.6-2.93,4.25
		l3.35,4.89H68.3l-2.97-4.38H63v4.38h-3.01V1.35z M66.05,8c1.47,0,2.31-0.78,2.31-1.98c0-1.29-0.9-1.96-2.37-1.96H63V8H66.05z"/>
</g>
</svg>
